<svg xmlns="http://www.w3.org/2000/svg" viewBox="0 0 1780 660" width="1780" height="660" role="img" aria-label="cairn"><defs><radialGradient id="rg1" cx="0.5" cy="0.5" r="0.5"><stop offset="0" stop-color="#FFB05C" stop-opacity="0.50"/><stop offset="0.42" stop-color="#FFB05C" stop-opacity="0.16"/><stop offset="1" stop-color="#FFB05C" stop-opacity="0"/></radialGradient><radialGradient id="rg2" cx="0.5" cy="0.5" r="0.5"><stop offset="0" stop-color="#FFE0B0" stop-opacity="0.95"/><stop offset="0.5" stop-color="#FFB05C" stop-opacity="0.45"/><stop offset="1" stop-color="#FFB05C" stop-opacity="0"/></radialGradient><linearGradient id="lg3" x1="0" y1="0" x2="0" y2="1"><stop offset="0" stop-color="#46566F"/><stop offset="1" stop-color="#212C40"/></linearGradient><linearGradient id="lg4" x1="0" y1="0" x2="0" y2="1"><stop offset="0" stop-color="#46566F"/><stop offset="1" stop-color="#212C40"/></linearGradient><linearGradient id="lg5" x1="0" y1="0" x2="0" y2="1"><stop offset="0" stop-color="#46566F"/><stop offset="1" stop-color="#212C40"/></linearGradient><linearGradient id="lg6" x1="0" y1="0" x2="0" y2="1"><stop offset="0" stop-color="#FFCD8A"/><stop offset="1" stop-color="#E79034"/></linearGradient><radialGradient id="rg7" cx="0.5" cy="0.5" r="0.5"><stop offset="0" stop-color="#FFE0B0" stop-opacity="0.9"/><stop offset="0.5" stop-color="#FFB05C" stop-opacity="0.4"/><stop offset="1" stop-color="#FFB05C" stop-opacity="0"/></radialGradient><linearGradient id="lg8" x1="0" y1="0" x2="0" y2="1"><stop offset="0" stop-color="#0C1018"/><stop offset="1" stop-color="#070A10"/></linearGradient></defs><rect x="0" y="0" width="1780" height="660" rx="0" fill="url(#lg8)"/><ellipse cx="420.0" cy="219.0" rx="211.6" ry="211.6" fill="url(#rg1)"/><ellipse cx="420.0" cy="143.5" rx="110.4" ry="110.4" fill="url(#rg2)"/><rect x="261.3" y="513.4" width="317.4" height="84.6" rx="33.9" fill="url(#lg3)"/><rect x="285.0" y="525.2" width="270.0" height="1.8" rx="1.8" fill="#FFFFFF" opacity="0.16"/><circle cx="303.6" cy="555.7" r="11.0" fill="#6CC4B2"/><rect x="323.5" y="551.1" width="158.7" height="9.2" rx="4.6" fill="#FFFFFF" opacity="0.12"/><rect x="290.3" y="401.1" width="259.4" height="84.6" rx="33.9" fill="url(#lg4)"/><rect x="314.0" y="413.0" width="212.0" height="1.8" rx="1.8" fill="#FFFFFF" opacity="0.16"/><circle cx="332.6" cy="443.4" r="11.0" fill="#A896E8"/><rect x="352.5" y="438.8" width="129.7" height="9.2" rx="4.6" fill="#FFFFFF" opacity="0.12"/><rect x="320.6" y="288.9" width="198.7" height="84.6" rx="33.9" fill="url(#lg5)"/><rect x="344.3" y="300.7" width="151.3" height="1.8" rx="1.8" fill="#FFFFFF" opacity="0.16"/><circle cx="363.0" cy="331.2" r="11.0" fill="#FFC478"/><rect x="382.8" y="326.6" width="99.4" height="9.2" rx="4.6" fill="#FFFFFF" opacity="0.12"/><rect x="360.2" y="176.6" width="119.6" height="84.6" rx="33.9" fill="url(#lg6)"/><rect x="383.9" y="188.5" width="72.2" height="1.8" rx="1.8" fill="#FFFFFF" opacity="0.28"/><circle cx="402.5" cy="219.0" r="11.0" fill="#E48E96"/><rect x="422.4" y="214.4" width="23.6" height="9.2" rx="4.6" fill="#FFFFFF" opacity="0.12"/><path d="M309 -12Q233 -12 174.5 23.0Q116 58 83.5 121.5Q51 185 51 268Q51 351 83.5 414.0Q116 477 174.5 512.5Q233 548 309 548Q372 548 424.0 523.0Q476 498 509.5 452.0Q543 406 552 342L417 335Q407 380 379.0 404.0Q351 428 310 428Q255 428 223.5 385.5Q192 343 192 268Q192 193 223.5 150.5Q255 108 310 108Q352 108 380.5 133.0Q409 158 418 206L553 199Q545 136 511.0 88.5Q477 41 425.0 14.5Q373 -12 309 -12Z" fill="#E9EEF7" opacity="1.0" transform="translate(760.00 286.00) scale(0.18800 -0.18800)"/><path d="M224 -12Q175 -12 134.0 6.0Q93 24 69.5 58.0Q46 92 46 139Q46 207 89.5 245.0Q133 283 209 299L370 334Q370 385 349.5 412.0Q329 439 283 439Q243 439 221.0 419.0Q199 399 192 366L52 374Q67 453 127.5 500.5Q188 548 281 548Q397 548 451.5 489.5Q506 431 506 326V137Q506 117 513.0 109.5Q520 102 534 102H556V0Q550 -1 536.0 -2.5Q522 -4 507 -4Q467 -4 439.0 10.0Q411 24 396.5 51.0Q382 78 380 116H395Q390 80 368.0 50.5Q346 21 309.0 4.5Q272 -12 224 -12ZM252 90Q290 90 316.0 103.5Q342 117 356.0 143.5Q370 170 370 206V238L251 212Q215 204 200.0 189.0Q185 174 185 146Q185 120 202.0 105.0Q219 90 252 90Z" fill="#E9EEF7" opacity="1.0" transform="translate(884.80 286.00) scale(0.18800 -0.18800)"/><path d="M267 0V536H403V0ZM68 0V108H572V0ZM78 428V536H378V428ZM263 602V720H401V602Z" fill="#E9EEF7" opacity="1.0" transform="translate(1009.60 286.00) scale(0.18800 -0.18800)"/><path d="M200 0V536H300L311 396H302Q310 466 342.5 501.0Q375 536 438 536H558V425H448Q410 425 385.0 412.0Q360 399 348.0 373.0Q336 347 336 308V0ZM72 0V108H499V0ZM72 428V536H281V428Z" fill="#E9EEF7" opacity="1.0" transform="translate(1134.40 286.00) scale(0.18800 -0.18800)"/><path d="M72 0V536H196L200 390L186 396Q196 448 220.5 482.0Q245 516 281.0 532.0Q317 548 361 548Q419 548 455.5 522.0Q492 496 510.0 451.0Q528 406 528 347V0H392V316Q392 377 371.5 405.0Q351 433 310 433Q282 433 259.0 419.0Q236 405 222.0 378.0Q208 351 208 310V0Z" fill="#E9EEF7" opacity="1.0" transform="translate(1259.20 286.00) scale(0.18800 -0.18800)"/><circle cx="1066.0" cy="187.0" r="57.6" fill="url(#rg7)"/><circle cx="1066.0" cy="187.0" r="18.0" fill="#FFCF90"/><path d="M300 -10Q235 -10 186.5 16.0Q138 42 111.5 89.5Q85 137 85 200V350Q85 414 111.5 461.0Q138 508 186.5 534.0Q235 560 300 560Q365 560 413.5 534.0Q462 508 488.5 461.0Q515 414 515 350V253H173V200Q173 135 206.0 100.5Q239 66 300 66Q352 66 384.0 84.5Q416 103 423 140H513Q504 71 445.5 30.5Q387 -10 300 -10ZM427 313V350Q427 415 394.5 450.0Q362 485 300 485Q239 485 206.0 450.0Q173 415 173 350V321H434Z" fill="#96A0B2" opacity="1.0" transform="translate(766.00 410.00) scale(0.03300 -0.03300)"/><path d="M239 0 55 550H147L269 180Q280 147 289.0 116.5Q298 86 302 69Q307 86 316.0 116.5Q325 147 335 180L454 550H545L361 0Z" fill="#96A0B2" opacity="1.0" transform="translate(791.80 410.00) scale(0.03300 -0.03300)"/><path d="M85 0V82H280V468H110V550H370V82H555V0ZM315 649Q282 649 263.0 666.0Q244 683 244 712Q244 742 263.0 759.5Q282 777 315 777Q348 777 367.0 759.5Q386 742 386 712Q386 683 367.0 666.0Q348 649 315 649Z" fill="#96A0B2" opacity="1.0" transform="translate(817.60 410.00) scale(0.03300 -0.03300)"/><path d="M268 -10Q186 -10 135.5 45.0Q85 100 85 194V355Q85 450 135.0 505.0Q185 560 268 560Q336 560 377.0 523.0Q418 486 418 424L400 445H420L418 570V730H508V0H418V105H400L418 126Q418 63 377.0 26.5Q336 -10 268 -10ZM298 68Q354 68 386.0 103.0Q418 138 418 200V350Q418 412 386.0 447.0Q354 482 298 482Q241 482 208.0 448.0Q175 414 175 350V200Q175 136 208.0 102.0Q241 68 298 68Z" fill="#96A0B2" opacity="1.0" transform="translate(843.40 410.00) scale(0.03300 -0.03300)"/><path d="M300 -10Q235 -10 186.5 16.0Q138 42 111.5 89.5Q85 137 85 200V350Q85 414 111.5 461.0Q138 508 186.5 534.0Q235 560 300 560Q365 560 413.5 534.0Q462 508 488.5 461.0Q515 414 515 350V253H173V200Q173 135 206.0 100.5Q239 66 300 66Q352 66 384.0 84.5Q416 103 423 140H513Q504 71 445.5 30.5Q387 -10 300 -10ZM427 313V350Q427 415 394.5 450.0Q362 485 300 485Q239 485 206.0 450.0Q173 415 173 350V321H434Z" fill="#96A0B2" opacity="1.0" transform="translate(869.20 410.00) scale(0.03300 -0.03300)"/><path d="M92 0V550H182V445H201L182 424Q182 489 221.0 524.5Q260 560 329 560Q412 560 461.0 509.0Q510 458 510 370V0H420V360Q420 419 388.5 450.5Q357 482 303 482Q247 482 214.5 448.0Q182 414 182 350V0Z" fill="#96A0B2" opacity="1.0" transform="translate(895.00 410.00) scale(0.03300 -0.03300)"/><path d="M304 -10Q238 -10 188.5 15.0Q139 40 112.0 87.5Q85 135 85 200V350Q85 416 112.0 463.0Q139 510 188.5 535.0Q238 560 304 560Q399 560 457.0 509.0Q515 458 518 370H428Q425 423 392.5 451.5Q360 480 304 480Q245 480 210.0 446.5Q175 413 175 351V200Q175 138 210.0 104.0Q245 70 304 70Q360 70 392.5 99.0Q425 128 428 180H518Q515 92 457.0 41.0Q399 -10 304 -10Z" fill="#96A0B2" opacity="1.0" transform="translate(920.80 410.00) scale(0.03300 -0.03300)"/><path d="M300 -10Q235 -10 186.5 16.0Q138 42 111.5 89.5Q85 137 85 200V350Q85 414 111.5 461.0Q138 508 186.5 534.0Q235 560 300 560Q365 560 413.5 534.0Q462 508 488.5 461.0Q515 414 515 350V253H173V200Q173 135 206.0 100.5Q239 66 300 66Q352 66 384.0 84.5Q416 103 423 140H513Q504 71 445.5 30.5Q387 -10 300 -10ZM427 313V350Q427 415 394.5 450.0Q362 485 300 485Q239 485 206.0 450.0Q173 415 173 350V321H434Z" fill="#96A0B2" opacity="1.0" transform="translate(946.60 410.00) scale(0.03300 -0.03300)"/><path d="M165 -160 245 151H375L245 -160Z" fill="#96A0B2" opacity="1.0" transform="translate(972.40 410.00) scale(0.03300 -0.03300)"/><path d="M92 0V550H182V445H201L182 424Q182 489 221.0 524.5Q260 560 329 560Q412 560 461.0 509.0Q510 458 510 370V0H420V360Q420 419 388.5 450.5Q357 482 303 482Q247 482 214.5 448.0Q182 414 182 350V0Z" fill="#96A0B2" opacity="1.0" transform="translate(1024.00 410.00) scale(0.03300 -0.03300)"/><path d="M300 -8Q234 -8 186.0 17.0Q138 42 111.5 89.5Q85 137 85 202V348Q85 414 111.5 461.0Q138 508 186.0 533.0Q234 558 300 558Q366 558 414.0 533.0Q462 508 488.5 461.0Q515 414 515 349V202Q515 137 488.5 89.5Q462 42 414.0 17.0Q366 -8 300 -8ZM300 72Q359 72 392.0 105.0Q425 138 425 202V348Q425 412 392.0 445.0Q359 478 300 478Q242 478 208.5 445.0Q175 412 175 348V202Q175 138 208.5 105.0Q242 72 300 72Z" fill="#96A0B2" opacity="1.0" transform="translate(1049.80 410.00) scale(0.03300 -0.03300)"/><path d="M360 0Q289 0 249.5 38.0Q210 76 210 145V468H55V550H210V705H300V550H520V468H300V145Q300 82 360 82H510V0Z" fill="#96A0B2" opacity="1.0" transform="translate(1075.60 410.00) scale(0.03300 -0.03300)"/><path d="M85 0V82H280V468H110V550H370V82H555V0ZM315 649Q282 649 263.0 666.0Q244 683 244 712Q244 742 263.0 759.5Q282 777 315 777Q348 777 367.0 759.5Q386 742 386 712Q386 683 367.0 666.0Q348 649 315 649Z" fill="#96A0B2" opacity="1.0" transform="translate(1127.20 410.00) scale(0.03300 -0.03300)"/><path d="M92 0V550H182V445H201L182 424Q182 489 221.0 524.5Q260 560 329 560Q412 560 461.0 509.0Q510 458 510 370V0H420V360Q420 419 388.5 450.5Q357 482 303 482Q247 482 214.5 448.0Q182 414 182 350V0Z" fill="#96A0B2" opacity="1.0" transform="translate(1153.00 410.00) scale(0.03300 -0.03300)"/><path d="M283 -8Q227 -8 185.5 9.5Q144 27 119.5 59.0Q95 91 90 135H180Q186 106 212.5 89.0Q239 72 283 72H325Q378 72 404.0 93.5Q430 115 430 151Q430 186 406.5 206.5Q383 227 337 234L263 246Q182 260 142.5 296.5Q103 333 103 403Q103 477 150.0 517.5Q197 558 291 558H329Q408 558 456.0 521.0Q504 484 514 421H424Q418 447 394.0 462.5Q370 478 329 478H291Q240 478 216.5 459.0Q193 440 193 402Q193 368 213.0 352.0Q233 336 276 329L350 317Q439 303 479.5 265.0Q520 227 520 155Q520 79 471.5 35.5Q423 -8 325 -8Z" fill="#96A0B2" opacity="1.0" transform="translate(1178.80 410.00) scale(0.03300 -0.03300)"/><path d="M360 0Q289 0 249.5 38.0Q210 76 210 145V468H55V550H210V705H300V550H520V468H300V145Q300 82 360 82H510V0Z" fill="#96A0B2" opacity="1.0" transform="translate(1204.60 410.00) scale(0.03300 -0.03300)"/><path d="M111 0V550H199V445H220L191 380Q191 469 229.5 514.5Q268 560 344 560Q431 560 482.5 505.5Q534 451 534 358V325H444V350Q444 415 412.5 449.5Q381 484 323 484Q266 484 233.5 449.0Q201 414 201 350V0Z" fill="#96A0B2" opacity="1.0" transform="translate(1230.40 410.00) scale(0.03300 -0.03300)"/><path d="M299 -10Q204 -10 147.0 46.5Q90 103 90 200V550H180V200Q180 138 212.0 103.5Q244 69 299 69Q355 69 387.5 103.5Q420 138 420 200V550H510V200Q510 103 452.0 46.5Q394 -10 299 -10Z" fill="#96A0B2" opacity="1.0" transform="translate(1256.20 410.00) scale(0.03300 -0.03300)"/><path d="M304 -10Q238 -10 188.5 15.0Q139 40 112.0 87.5Q85 135 85 200V350Q85 416 112.0 463.0Q139 510 188.5 535.0Q238 560 304 560Q399 560 457.0 509.0Q515 458 518 370H428Q425 423 392.5 451.5Q360 480 304 480Q245 480 210.0 446.5Q175 413 175 351V200Q175 138 210.0 104.0Q245 70 304 70Q360 70 392.5 99.0Q425 128 428 180H518Q515 92 457.0 41.0Q399 -10 304 -10Z" fill="#96A0B2" opacity="1.0" transform="translate(1282.00 410.00) scale(0.03300 -0.03300)"/><path d="M360 0Q289 0 249.5 38.0Q210 76 210 145V468H55V550H210V705H300V550H520V468H300V145Q300 82 360 82H510V0Z" fill="#96A0B2" opacity="1.0" transform="translate(1307.80 410.00) scale(0.03300 -0.03300)"/><path d="M85 0V82H280V468H110V550H370V82H555V0ZM315 649Q282 649 263.0 666.0Q244 683 244 712Q244 742 263.0 759.5Q282 777 315 777Q348 777 367.0 759.5Q386 742 386 712Q386 683 367.0 666.0Q348 649 315 649Z" fill="#96A0B2" opacity="1.0" transform="translate(1333.60 410.00) scale(0.03300 -0.03300)"/><path d="M300 -8Q234 -8 186.0 17.0Q138 42 111.5 89.5Q85 137 85 202V348Q85 414 111.5 461.0Q138 508 186.0 533.0Q234 558 300 558Q366 558 414.0 533.0Q462 508 488.5 461.0Q515 414 515 349V202Q515 137 488.5 89.5Q462 42 414.0 17.0Q366 -8 300 -8ZM300 72Q359 72 392.0 105.0Q425 138 425 202V348Q425 412 392.0 445.0Q359 478 300 478Q242 478 208.5 445.0Q175 412 175 348V202Q175 138 208.5 105.0Q242 72 300 72Z" fill="#96A0B2" opacity="1.0" transform="translate(1359.40 410.00) scale(0.03300 -0.03300)"/><path d="M92 0V550H182V445H201L182 424Q182 489 221.0 524.5Q260 560 329 560Q412 560 461.0 509.0Q510 458 510 370V0H420V360Q420 419 388.5 450.5Q357 482 303 482Q247 482 214.5 448.0Q182 414 182 350V0Z" fill="#96A0B2" opacity="1.0" transform="translate(1385.20 410.00) scale(0.03300 -0.03300)"/><path d="M283 -8Q227 -8 185.5 9.5Q144 27 119.5 59.0Q95 91 90 135H180Q186 106 212.5 89.0Q239 72 283 72H325Q378 72 404.0 93.5Q430 115 430 151Q430 186 406.5 206.5Q383 227 337 234L263 246Q182 260 142.5 296.5Q103 333 103 403Q103 477 150.0 517.5Q197 558 291 558H329Q408 558 456.0 521.0Q504 484 514 421H424Q418 447 394.0 462.5Q370 478 329 478H291Q240 478 216.5 459.0Q193 440 193 402Q193 368 213.0 352.0Q233 336 276 329L350 317Q439 303 479.5 265.0Q520 227 520 155Q520 79 471.5 35.5Q423 -8 325 -8Z" fill="#96A0B2" opacity="1.0" transform="translate(1411.00 410.00) scale(0.03300 -0.03300)"/><path d="M283 -8Q227 -8 185.5 9.5Q144 27 119.5 59.0Q95 91 90 135H180Q186 106 212.5 89.0Q239 72 283 72H325Q378 72 404.0 93.5Q430 115 430 151Q430 186 406.5 206.5Q383 227 337 234L263 246Q182 260 142.5 296.5Q103 333 103 403Q103 477 150.0 517.5Q197 558 291 558H329Q408 558 456.0 521.0Q504 484 514 421H424Q418 447 394.0 462.5Q370 478 329 478H291Q240 478 216.5 459.0Q193 440 193 402Q193 368 213.0 352.0Q233 336 276 329L350 317Q439 303 479.5 265.0Q520 227 520 155Q520 79 471.5 35.5Q423 -8 325 -8Z" fill="#56627A" opacity="1.0" transform="translate(766.00 466.00) scale(0.02500 -0.02500)"/><path d="M360 0Q289 0 249.5 38.0Q210 76 210 145V468H55V550H210V705H300V550H520V468H300V145Q300 82 360 82H510V0Z" fill="#56627A" opacity="1.0" transform="translate(786.00 466.00) scale(0.02500 -0.02500)"/><path d="M111 0V550H199V445H220L191 380Q191 469 229.5 514.5Q268 560 344 560Q431 560 482.5 505.5Q534 451 534 358V325H444V350Q444 415 412.5 449.5Q381 484 323 484Q266 484 233.5 449.0Q201 414 201 350V0Z" fill="#56627A" opacity="1.0" transform="translate(806.00 466.00) scale(0.02500 -0.02500)"/><path d="M299 -10Q204 -10 147.0 46.5Q90 103 90 200V550H180V200Q180 138 212.0 103.5Q244 69 299 69Q355 69 387.5 103.5Q420 138 420 200V550H510V200Q510 103 452.0 46.5Q394 -10 299 -10Z" fill="#56627A" opacity="1.0" transform="translate(826.00 466.00) scale(0.02500 -0.02500)"/><path d="M304 -10Q238 -10 188.5 15.0Q139 40 112.0 87.5Q85 135 85 200V350Q85 416 112.0 463.0Q139 510 188.5 535.0Q238 560 304 560Q399 560 457.0 509.0Q515 458 518 370H428Q425 423 392.5 451.5Q360 480 304 480Q245 480 210.0 446.5Q175 413 175 351V200Q175 138 210.0 104.0Q245 70 304 70Q360 70 392.5 99.0Q425 128 428 180H518Q515 92 457.0 41.0Q399 -10 304 -10Z" fill="#56627A" opacity="1.0" transform="translate(846.00 466.00) scale(0.02500 -0.02500)"/><path d="M360 0Q289 0 249.5 38.0Q210 76 210 145V468H55V550H210V705H300V550H520V468H300V145Q300 82 360 82H510V0Z" fill="#56627A" opacity="1.0" transform="translate(866.00 466.00) scale(0.02500 -0.02500)"/><path d="M299 -10Q204 -10 147.0 46.5Q90 103 90 200V550H180V200Q180 138 212.0 103.5Q244 69 299 69Q355 69 387.5 103.5Q420 138 420 200V550H510V200Q510 103 452.0 46.5Q394 -10 299 -10Z" fill="#56627A" opacity="1.0" transform="translate(886.00 466.00) scale(0.02500 -0.02500)"/><path d="M111 0V550H199V445H220L191 380Q191 469 229.5 514.5Q268 560 344 560Q431 560 482.5 505.5Q534 451 534 358V325H444V350Q444 415 412.5 449.5Q381 484 323 484Q266 484 233.5 449.0Q201 414 201 350V0Z" fill="#56627A" opacity="1.0" transform="translate(906.00 466.00) scale(0.02500 -0.02500)"/><path d="M300 -10Q235 -10 186.5 16.0Q138 42 111.5 89.5Q85 137 85 200V350Q85 414 111.5 461.0Q138 508 186.5 534.0Q235 560 300 560Q365 560 413.5 534.0Q462 508 488.5 461.0Q515 414 515 350V253H173V200Q173 135 206.0 100.5Q239 66 300 66Q352 66 384.0 84.5Q416 103 423 140H513Q504 71 445.5 30.5Q387 -10 300 -10ZM427 313V350Q427 415 394.5 450.0Q362 485 300 485Q239 485 206.0 450.0Q173 415 173 350V321H434Z" fill="#56627A" opacity="1.0" transform="translate(926.00 466.00) scale(0.02500 -0.02500)"/><path d="M268 -10Q186 -10 135.5 45.0Q85 100 85 194V355Q85 450 135.0 505.0Q185 560 268 560Q336 560 377.0 523.0Q418 486 418 424L400 445H420L418 570V730H508V0H418V105H400L418 126Q418 63 377.0 26.5Q336 -10 268 -10ZM298 68Q354 68 386.0 103.0Q418 138 418 200V350Q418 412 386.0 447.0Q354 482 298 482Q241 482 208.0 448.0Q175 414 175 350V200Q175 136 208.0 102.0Q241 68 298 68Z" fill="#56627A" opacity="1.0" transform="translate(946.00 466.00) scale(0.02500 -0.02500)"/><path d="M375 0Q327 0 291.0 19.0Q255 38 235.0 73.0Q215 108 215 155V648H30V730H305V155Q305 121 324.0 101.5Q343 82 375 82H550V0Z" fill="#56627A" opacity="1.0" transform="translate(986.00 466.00) scale(0.02500 -0.02500)"/><path d="M300 -8Q234 -8 186.0 17.0Q138 42 111.5 89.5Q85 137 85 202V348Q85 414 111.5 461.0Q138 508 186.0 533.0Q234 558 300 558Q366 558 414.0 533.0Q462 508 488.5 461.0Q515 414 515 349V202Q515 137 488.5 89.5Q462 42 414.0 17.0Q366 -8 300 -8ZM300 72Q359 72 392.0 105.0Q425 138 425 202V348Q425 412 392.0 445.0Q359 478 300 478Q242 478 208.5 445.0Q175 412 175 348V202Q175 138 208.5 105.0Q242 72 300 72Z" fill="#56627A" opacity="1.0" transform="translate(1006.00 466.00) scale(0.02500 -0.02500)"/><path d="M161 -180V-98H336Q378 -98 397.5 -79.0Q417 -60 417 -20V50L419 150H401L418 165Q418 105 378.0 70.0Q338 35 271 35Q186 35 137.0 90.5Q88 146 88 240V356Q88 450 137.0 505.0Q186 560 271 560Q338 560 378.0 525.0Q418 490 418 430L401 445H418V550H507V-20Q507 -94 461.5 -137.0Q416 -180 335 -180ZM298 113Q354 113 386.0 148.0Q418 183 418 245V350Q418 412 386.0 447.0Q354 482 298 482Q241 482 209.5 448.0Q178 414 178 350V245Q178 181 209.5 147.0Q241 113 298 113Z" fill="#56627A" opacity="1.0" transform="translate(1026.00 466.00) scale(0.02500 -0.02500)"/><path d="M252 -10Q165 -10 115.0 34.5Q65 79 65 155Q65 232 115.0 276.0Q165 320 250 320H420V375Q420 426 389.5 453.5Q359 481 303 481Q254 481 221.0 460.5Q188 440 183 405H93Q102 476 160.0 518.0Q218 560 305 560Q400 560 455.0 511.0Q510 462 510 378V0H422V105H407L422 120Q422 60 375.5 25.0Q329 -10 252 -10ZM274 61Q338 61 379.0 93.0Q420 125 420 175V253H252Q207 253 181.0 228.0Q155 203 155 160Q155 114 186.5 87.5Q218 61 274 61Z" fill="#56627A" opacity="1.0" transform="translate(1066.00 466.00) scale(0.02500 -0.02500)"/><path d="M268 -10Q186 -10 135.5 45.0Q85 100 85 194V355Q85 450 135.0 505.0Q185 560 268 560Q336 560 377.0 523.0Q418 486 418 424L400 445H420L418 570V730H508V0H418V105H400L418 126Q418 63 377.0 26.5Q336 -10 268 -10ZM298 68Q354 68 386.0 103.0Q418 138 418 200V350Q418 412 386.0 447.0Q354 482 298 482Q241 482 208.0 448.0Q175 414 175 350V200Q175 136 208.0 102.0Q241 68 298 68Z" fill="#56627A" opacity="1.0" transform="translate(1086.00 466.00) scale(0.02500 -0.02500)"/><path d="M252 -10Q165 -10 115.0 34.5Q65 79 65 155Q65 232 115.0 276.0Q165 320 250 320H420V375Q420 426 389.5 453.5Q359 481 303 481Q254 481 221.0 460.5Q188 440 183 405H93Q102 476 160.0 518.0Q218 560 305 560Q400 560 455.0 511.0Q510 462 510 378V0H422V105H407L422 120Q422 60 375.5 25.0Q329 -10 252 -10ZM274 61Q338 61 379.0 93.0Q420 125 420 175V253H252Q207 253 181.0 228.0Q155 203 155 160Q155 114 186.5 87.5Q218 61 274 61Z" fill="#56627A" opacity="1.0" transform="translate(1106.00 466.00) scale(0.02500 -0.02500)"/><path d="M92 -180V550H182V445H200L182 424Q182 487 223.5 523.5Q265 560 333 560Q416 560 465.5 505.5Q515 451 515 356V195Q515 132 492.5 86.0Q470 40 429.5 15.0Q389 -10 333 -10Q266 -10 224.0 27.0Q182 64 182 126L200 105H180L182 -20V-180ZM303 68Q360 68 392.5 102.0Q425 136 425 200V350Q425 414 392.5 448.0Q360 482 303 482Q248 482 215.0 447.0Q182 412 182 350V200Q182 138 215.0 103.0Q248 68 303 68Z" fill="#56627A" opacity="1.0" transform="translate(1126.00 466.00) scale(0.02500 -0.02500)"/><path d="M360 0Q289 0 249.5 38.0Q210 76 210 145V468H55V550H210V705H300V550H520V468H300V145Q300 82 360 82H510V0Z" fill="#56627A" opacity="1.0" transform="translate(1146.00 466.00) scale(0.02500 -0.02500)"/><path d="M300 -10Q235 -10 186.5 16.0Q138 42 111.5 89.5Q85 137 85 200V350Q85 414 111.5 461.0Q138 508 186.5 534.0Q235 560 300 560Q365 560 413.5 534.0Q462 508 488.5 461.0Q515 414 515 350V253H173V200Q173 135 206.0 100.5Q239 66 300 66Q352 66 384.0 84.5Q416 103 423 140H513Q504 71 445.5 30.5Q387 -10 300 -10ZM427 313V350Q427 415 394.5 450.0Q362 485 300 485Q239 485 206.0 450.0Q173 415 173 350V321H434Z" fill="#56627A" opacity="1.0" transform="translate(1166.00 466.00) scale(0.02500 -0.02500)"/><path d="M111 0V550H199V445H220L191 380Q191 469 229.5 514.5Q268 560 344 560Q431 560 482.5 505.5Q534 451 534 358V325H444V350Q444 415 412.5 449.5Q381 484 323 484Q266 484 233.5 449.0Q201 414 201 350V0Z" fill="#56627A" opacity="1.0" transform="translate(1186.00 466.00) scale(0.02500 -0.02500)"/><path d="M300 260Q262 260 239.5 282.0Q217 304 217 341Q217 380 239.5 403.0Q262 426 300 426Q338 426 360.5 403.0Q383 380 383 341Q383 304 360.5 282.0Q338 260 300 260Z" fill="#56627A" opacity="1.0" transform="translate(1226.00 466.00) scale(0.02500 -0.02500)"/><path d="M66 0V550H145V484H163L149 460Q149 506 173.5 533.0Q198 560 240 560Q286 560 311.0 526.0Q336 492 336 430L309 484H351L332 460Q332 506 357.5 533.0Q383 560 425 560Q477 560 505.5 521.0Q534 482 534 418V0H451V419Q451 453 436.5 472.0Q422 491 394 491Q367 491 351.5 472.5Q336 454 336 420V0H264V419Q264 454 248.5 472.5Q233 491 205 491Q177 491 163.0 472.5Q149 454 149 420V0Z" fill="#56627A" opacity="1.0" transform="translate(1266.00 466.00) scale(0.02500 -0.02500)"/><path d="M304 -10Q238 -10 188.5 15.0Q139 40 112.0 87.5Q85 135 85 200V350Q85 416 112.0 463.0Q139 510 188.5 535.0Q238 560 304 560Q399 560 457.0 509.0Q515 458 518 370H428Q425 423 392.5 451.5Q360 480 304 480Q245 480 210.0 446.5Q175 413 175 351V200Q175 138 210.0 104.0Q245 70 304 70Q360 70 392.5 99.0Q425 128 428 180H518Q515 92 457.0 41.0Q399 -10 304 -10Z" fill="#56627A" opacity="1.0" transform="translate(1286.00 466.00) scale(0.02500 -0.02500)"/><path d="M92 -180V550H182V445H200L182 424Q182 487 223.5 523.5Q265 560 333 560Q416 560 465.5 505.5Q515 451 515 356V195Q515 132 492.5 86.0Q470 40 429.5 15.0Q389 -10 333 -10Q266 -10 224.0 27.0Q182 64 182 126L200 105H180L182 -20V-180ZM303 68Q360 68 392.5 102.0Q425 136 425 200V350Q425 414 392.5 448.0Q360 482 303 482Q248 482 215.0 447.0Q182 412 182 350V200Q182 138 215.0 103.0Q248 68 303 68Z" fill="#56627A" opacity="1.0" transform="translate(1306.00 466.00) scale(0.02500 -0.02500)"/></svg>