<svg xmlns="http://www.w3.org/2000/svg" viewBox="0 0 512 512" width="512" height="512" role="img" aria-label="cairn"><defs><radialGradient id="rg1" cx="0.5" cy="0.5" r="0.5"><stop offset="0" stop-color="#FFB05C" stop-opacity="0.50"/><stop offset="0.42" stop-color="#FFB05C" stop-opacity="0.16"/><stop offset="1" stop-color="#FFB05C" stop-opacity="0"/></radialGradient><radialGradient id="rg2" cx="0.5" cy="0.5" r="0.5"><stop offset="0" stop-color="#FFE0B0" stop-opacity="0.95"/><stop offset="0.5" stop-color="#FFB05C" stop-opacity="0.45"/><stop offset="1" stop-color="#FFB05C" stop-opacity="0"/></radialGradient><linearGradient id="lg3" x1="0" y1="0" x2="0" y2="1"><stop offset="0" stop-color="#46566F"/><stop offset="1" stop-color="#212C40"/></linearGradient><linearGradient id="lg4" x1="0" y1="0" x2="0" y2="1"><stop offset="0" stop-color="#46566F"/><stop offset="1" stop-color="#212C40"/></linearGradient><linearGradient id="lg5" x1="0" y1="0" x2="0" y2="1"><stop offset="0" stop-color="#46566F"/><stop offset="1" stop-color="#212C40"/></linearGradient><linearGradient id="lg6" x1="0" y1="0" x2="0" y2="1"><stop offset="0" stop-color="#FFCD8A"/><stop offset="1" stop-color="#E79034"/></linearGradient><linearGradient id="lg7" x1="0" y1="0" x2="0" y2="1"><stop offset="0" stop-color="#0C1018"/><stop offset="1" stop-color="#070A10"/></linearGradient></defs><rect x="0" y="0" width="512" height="512" rx="92.16" fill="url(#lg7)"/><ellipse cx="256.0" cy="105.6" rx="194.3" ry="194.3" fill="url(#rg1)"/><ellipse cx="256.0" cy="36.4" rx="101.4" ry="101.4" fill="url(#rg2)"/><rect x="110.3" y="376.0" width="291.5" height="77.7" rx="31.1" fill="url(#lg3)"/><rect x="132.0" y="386.8" width="247.9" height="1.7" rx="1.7" fill="#FFFFFF" opacity="0.16"/><circle cx="149.1" cy="414.8" r="10.1" fill="#6CC4B2"/><rect x="167.4" y="410.6" width="145.7" height="8.4" rx="4.2" fill="#FFFFFF" opacity="0.12"/><rect x="136.9" y="272.9" width="238.2" height="77.7" rx="31.1" fill="url(#lg4)"/><rect x="158.6" y="283.8" width="194.7" height="1.7" rx="1.7" fill="#FFFFFF" opacity="0.16"/><circle cx="175.7" cy="311.8" r="10.1" fill="#A896E8"/><rect x="194.0" y="307.5" width="119.1" height="8.4" rx="4.2" fill="#FFFFFF" opacity="0.12"/><rect x="164.8" y="169.8" width="182.5" height="77.7" rx="31.1" fill="url(#lg5)"/><rect x="186.5" y="180.7" width="139.0" height="1.7" rx="1.7" fill="#FFFFFF" opacity="0.16"/><circle cx="203.6" cy="208.7" r="10.1" fill="#FFC478"/><rect x="221.9" y="204.5" width="91.2" height="8.4" rx="4.2" fill="#FFFFFF" opacity="0.12"/><rect x="201.1" y="66.8" width="109.8" height="77.7" rx="31.1" fill="url(#lg6)"/><rect x="222.9" y="77.6" width="66.3" height="1.7" rx="1.7" fill="#FFFFFF" opacity="0.28"/><circle cx="239.9" cy="105.6" r="10.1" fill="#E48E96"/><rect x="258.2" y="101.4" width="21.6" height="8.4" rx="4.2" fill="#FFFFFF" opacity="0.12"/></svg>